<svg xmlns="http://www.w3.org/2000/svg" xmlns:xlink="http://www.w3.org/1999/xlink" style="display:none"><symbol id="ito_left" viewBox="0 0 668.5 161.1"><path d="M.1.5S78.6 13 107.6 29s99.5 64.5 126.5 78.5 85.5 39.5 121 45.5 72 9 91 7 48-5 53-7c.9-.4 1.8-.8 2.5-1.2 3.6-2 5.9-4.9 4.2-8.2-2-4-7.4-14.8-22.1-20.5-14.8-5.8-30.4-10.5-37.5-7.5s-10 5.4-7.5 12c2.5 6.8 15.8 15.7 22.5 18.4s19.2 6.4 23.9 6.6 16.1.9 25.6-2.2 17-5 19.8-10.9 4.5-10.4-2.1-11.1c-6.6-.7-13.8.3-19.2 2.2-7.7 2.7-8.8 3.1-11.9 7.8s-3.8 7.8-3.8 7.8-.2 5.4 5.4 5.5 16.6-2.2 24.9-4.9 50.2-15.6 78.2-30.9 66.3-41.7 66.3-41.7" stroke-miterlimit="10"/></symbol><symbol id="ito_right" viewBox="0 0 667.8 205.1"><path d="M.4 204.9s27.5-44.5 51-68 56.5-52.5 67-60 39-24 43-27.5 6.5-13-13-22.5S99.4 12 95.9 18s-1.5 10.8 4.5 14.8 22 15.5 35 18 19.7 1.5 19.7 1.5l5.3-.5s7.8 1.3 17.3-4 15.2-9 14.2-13.2-2.8-8.5-11-7-19 4.3-23.3 9.2c-4.3 4.8-8.2 12-2.7 13.5 5 1.4 9.9-2.5 10.7-3.2.1-.1.2-.1.3-.2 2.7-1.2 38.9-18.2 48.5-21.6 10-3.5 66.5-20 90-22.5s93-4.5 123.5 2 93.5 17 116.5 18 77.2 9.8 123.2-14.2" stroke-miterlimit="10"/></symbol></svg>
